<?xml version="1.0" encoding="utf-8"?>
<!-- Generator: Adobe Illustrator 25.0.0, SVG Export Plug-In . SVG Version: 6.00 Build 0)  -->
<svg version="1.1" id="Layer_1" xmlns="http://www.w3.org/2000/svg" xmlns:xlink="http://www.w3.org/1999/xlink" x="0px" y="0px"
	 viewBox="0 0 750 750" style="enable-background:new 0 0 750 750;" xml:space="preserve">
<style type="text/css">
	.st0{fill:url(#SVGID_1_);}
	.st1{fill:url(#SVGID_2_);}
	.st2{fill:url(#SVGID_3_);}
</style>
<g>
	<g>
		<g>
			
				<linearGradient id="SVGID_1_" gradientUnits="userSpaceOnUse" x1="-32.2139" y1="1958.0474" x2="-30.9872" y2="1150.2388" gradientTransform="matrix(0.7082 0.706 -0.706 0.7082 1500.7028 -971.1896)">
				<stop  offset="0" style="stop-color:#F9EC31"/>
				<stop  offset="0.1296" style="stop-color:#CBDE37"/>
				<stop  offset="0.2762" style="stop-color:#9ED13D"/>
				<stop  offset="0.424" style="stop-color:#79C642"/>
				<stop  offset="0.5708" style="stop-color:#5CBE45"/>
				<stop  offset="0.7164" style="stop-color:#47B848"/>
				<stop  offset="0.8601" style="stop-color:#3BB449"/>
				<stop  offset="1" style="stop-color:#37B34A"/>
			</linearGradient>
			<path class="st0" d="M305.64,367.83l-133.59,134c-18.81,18.86-50.44,17.82-70.65-2.33s-21.35-51.78-2.55-70.64l133.59-134
				c0,0,12.15-16.7-5.68-34.48c-17.83-17.77-33.55-4.64-33.55-4.64l-41.91,42.04c-18.81,18.86-50.44,17.81-70.65-2.33
				c-20.21-20.15-21.35-51.78-2.55-70.64L224.78,77.66c18.81-18.86,50.44-17.82,70.65,2.33c20.21,20.15,21.35,51.78,2.55,70.64
				l-47.15,47.29c0,0-16.27,15.21,4.37,35.79c22.05,21.98,34.86,3.32,34.86,3.32L428.9,97.8c18.81-18.87,50.44-17.82,70.65,2.33
				c20.21,20.15,21.35,51.78,2.55,70.65L363.27,310.03L305.64,367.83z"/>
		</g>
		<g>
			
				<linearGradient id="SVGID_2_" gradientUnits="userSpaceOnUse" x1="5508.1821" y1="1846.8921" x2="5506.9556" y2="2654.7007" gradientTransform="matrix(-0.7082 -0.706 0.706 -0.7082 2907.0029 5804.0361)">
				<stop  offset="0" style="stop-color:#F9EC31"/>
				<stop  offset="0.1296" style="stop-color:#CBDE37"/>
				<stop  offset="0.2762" style="stop-color:#9ED13D"/>
				<stop  offset="0.424" style="stop-color:#79C642"/>
				<stop  offset="0.5708" style="stop-color:#5CBE45"/>
				<stop  offset="0.7164" style="stop-color:#47B848"/>
				<stop  offset="0.8601" style="stop-color:#3BB449"/>
				<stop  offset="1" style="stop-color:#37B34A"/>
			</linearGradient>
			<path class="st1" d="M397.92,334.1l133.59-134c18.81-18.86,50.44-17.82,70.65,2.33c20.21,20.15,21.35,51.78,2.55,70.64
				l-133.59,134c0,0-12.15,16.7,5.68,34.48c17.83,17.77,33.55,4.64,33.55,4.64l41.91-42.04c18.81-18.86,50.44-17.81,70.65,2.33
				c20.21,20.15,21.35,51.78,2.55,70.64L478.78,624.26c-18.81,18.86-50.44,17.82-70.65-2.33c-20.21-20.15-21.35-51.78-2.55-70.64
				l47.15-47.29c0,0,16.27-15.21-4.37-35.79c-22.05-21.98-34.86-3.32-34.86-3.32L274.66,604.13c-18.81,18.87-50.44,17.82-70.65-2.33
				c-20.21-20.15-21.35-51.78-2.55-70.65L340.29,391.9L397.92,334.1z"/>
		</g>
	</g>
	
		<linearGradient id="SVGID_3_" gradientUnits="userSpaceOnUse" x1="619.7986" y1="1758.9237" x2="619.7986" y2="1634.3556" gradientTransform="matrix(0.7071 0.7071 -0.7071 0.7071 1383.2848 -1016.9431)">
		<stop  offset="0" style="stop-color:#F9EC31"/>
		<stop  offset="0.1296" style="stop-color:#CBDE37"/>
		<stop  offset="0.2762" style="stop-color:#9ED13D"/>
		<stop  offset="0.424" style="stop-color:#79C642"/>
		<stop  offset="0.5708" style="stop-color:#5CBE45"/>
		<stop  offset="0.7164" style="stop-color:#47B848"/>
		<stop  offset="0.8601" style="stop-color:#3BB449"/>
		<stop  offset="1" style="stop-color:#37B34A"/>
	</linearGradient>
	<circle class="st2" cx="621.84" cy="621.03" r="62.28"/>
</g>
</svg>
