<svg id="Layer_1" data-name="Layer 1" xmlns="http://www.w3.org/2000/svg" xmlns:xlink="http://www.w3.org/1999/xlink" viewBox="0 0 1024 445"><defs><style>.cls-1{fill:#08192b;}.cls-2{fill:url(#linear-gradient);}.cls-3{fill:url(#linear-gradient-2);}.cls-4{fill:url(#linear-gradient-3);}.cls-5{fill:url(#linear-gradient-4);}</style><linearGradient id="linear-gradient" x1="120.88" y1="135.3" x2="169.85" y2="184.27" gradientTransform="translate(384.81 319.57) rotate(180)" gradientUnits="userSpaceOnUse"><stop offset="0" stop-color="#6bc39e"/><stop offset="0.42" stop-color="#5dc6d4"/><stop offset="0.49" stop-color="#5bc7dd"/><stop offset="1" stop-color="#1b75bb"/></linearGradient><linearGradient id="linear-gradient-2" x1="88.83" y1="187.33" x2="159.16" y2="257.67" gradientTransform="translate(342.07 445) rotate(180)" xlink:href="#linear-gradient"/><linearGradient id="linear-gradient-3" x1="53.29" y1="247.3" x2="138.49" y2="332.5" gradientTransform="translate(94.08 0)" xlink:href="#linear-gradient"/><linearGradient id="linear-gradient-4" x1="269.07" y1="285.02" x2="305.22" y2="285.02" gradientUnits="userSpaceOnUse"><stop offset="0" stop-color="#5bc7dd"/><stop offset="1" stop-color="#1b75bb"/></linearGradient></defs><path class="cls-1" d="M434.8,220.59q10.4,5.78,15.24,14.78t4.85,21.7q0,23.79-16.62,35t-43.18,11.2H333a3.41,3.41,0,0,1-2.54-.93,3.44,3.44,0,0,1-.92-2.54V145.09a3.19,3.19,0,0,1,3.46-3.46h60q29.55,0,44.44,10.51t14.9,35.21q0,21.93-17.55,31.86Q433.89,219.9,434.8,220.59ZM372.93,180v23.09a1,1,0,0,0,1.15,1.15H393q16.86,0,16.86-12.7T393,178.8H374.08A1,1,0,0,0,372.93,180Zm38.55,72.49q0-12.93-16.16-12.93H374.08a1,1,0,0,0-1.15,1.16v24.24a1,1,0,0,0,1.15,1.16h21Q411.49,266.08,411.48,252.45Z"/><path class="cls-1" d="M577.94,300.25l-5.07-18c-.31-.62-.7-.93-1.16-.93h-49c-.46,0-.84.31-1.15.93l-5.08,18a3.6,3.6,0,0,1-3.92,3H473.13q-4.17,0-3-3.93L518.84,144.4a3.75,3.75,0,0,1,3.92-2.77h49a3.77,3.77,0,0,1,3.93,2.77l48.71,154.92a3.27,3.27,0,0,1,.24,1.39c0,1.69-1.08,2.54-3.24,2.54H581.87A3.61,3.61,0,0,1,577.94,300.25Zm-45.25-52.18h28.86c.93,0,1.24-.46.93-1.39L547.7,195q-.23-.69-.69-.69t-.69.69l-14.55,51.72C531.61,247.61,531.92,248.07,532.69,248.07Z"/><path class="cls-1" d="M668.91,298.75q-14.55-6.36-22.51-18.13a47.46,47.46,0,0,1-8-27.24v-3.24a3.21,3.21,0,0,1,3.47-3.46h35.78a3.21,3.21,0,0,1,3.47,3.46v1.39q0,6.47,6.81,11.43t18.12,5q8.53,0,12.24-3.58a10.88,10.88,0,0,0,3.69-8,8.19,8.19,0,0,0-4.62-7.62q-4.62-2.53-16.85-6.23l-6.69-1.85q-22.86-6.93-38.33-18.47t-15.47-33.48A43.68,43.68,0,0,1,647.9,163a50.13,50.13,0,0,1,21.59-17.2,76.2,76.2,0,0,1,30.82-6,77.8,77.8,0,0,1,32.67,6.7,55.18,55.18,0,0,1,23.09,18.93,48.13,48.13,0,0,1,8.42,27.94v2.08a3.19,3.19,0,0,1-3.46,3.46H725.25a3.2,3.2,0,0,1-3.47-3.46v-.23q0-6.93-6.23-12.59T698.69,177q-7.4,0-11.66,3a9.61,9.61,0,0,0-4.27,8.31,9.22,9.22,0,0,0,3.12,7,32.26,32.26,0,0,0,9.58,5.54q6.46,2.66,19.86,6.81,1.84.69,16.27,5a50,50,0,0,1,24.13,15.47q9.71,11.19,9.7,27.12,0,15.48-7.85,26.67t-21.94,17.2q-14.08,6-32.78,6Q683.46,305.1,668.91,298.75Z"/><path class="cls-1" d="M906,177.88a3.4,3.4,0,0,1-2.54.92h-69A1,1,0,0,0,833.3,180v21.7a1,1,0,0,0,1.15,1.15h42.71a3.21,3.21,0,0,1,3.47,3.47v30a3.21,3.21,0,0,1-3.47,3.47H834.45a1,1,0,0,0-1.15,1.15v24a1,1,0,0,0,1.15,1.16h69a3.2,3.2,0,0,1,3.47,3.46v30.24a3.21,3.21,0,0,1-3.47,3.47H793.35a3.2,3.2,0,0,1-3.46-3.47V145.09a3.19,3.19,0,0,1,3.46-3.46H903.48a3.2,3.2,0,0,1,3.47,3.46v30.25A3.41,3.41,0,0,1,906,177.88Z"/><rect class="cls-2" x="199.04" y="141.66" width="80.8" height="36.25" rx="16.32" transform="translate(478.89 319.57) rotate(-180)"/><rect class="cls-3" x="156.3" y="204.38" width="123.54" height="36.25" rx="16.32" transform="translate(436.15 445) rotate(-180)"/><path class="cls-4" d="M237.86,267.09H135.08A18.13,18.13,0,0,0,117,285.22h0a18.12,18.12,0,0,0,18.12,18.12H261.72s-12.14-4.29-12.14-18.06a20.71,20.71,0,0,1,.37-4A12.17,12.17,0,0,0,237.86,267.09Z"/><circle class="cls-5" cx="287.14" cy="285.02" r="18.07"/></svg>