<svg id="Layer_1" data-name="Layer 1" xmlns="http://www.w3.org/2000/svg" xmlns:xlink="http://www.w3.org/1999/xlink" viewBox="0 0 1024 445"><defs><style>.cls-1{fill:#08192b;}.cls-2{fill:#fff;}.cls-3{fill:url(#linear-gradient);}.cls-4{fill:url(#linear-gradient-2);}.cls-5{fill:url(#linear-gradient-3);}.cls-6{fill:url(#linear-gradient-4);}</style><linearGradient id="linear-gradient" x1="120.02" y1="135.3" x2="168.99" y2="184.27" gradientTransform="translate(383.09 319.57) rotate(180)" gradientUnits="userSpaceOnUse"><stop offset="0" stop-color="#6bc39e"/><stop offset="0.42" stop-color="#5dc6d4"/><stop offset="0.49" stop-color="#5bc7dd"/><stop offset="1" stop-color="#1b75bb"/></linearGradient><linearGradient id="linear-gradient-2" x1="87.97" y1="187.33" x2="158.3" y2="257.67" gradientTransform="translate(340.35 445) rotate(180)" xlink:href="#linear-gradient"/><linearGradient id="linear-gradient-3" x1="52.43" y1="247.3" x2="137.62" y2="332.5" gradientTransform="translate(94.08 0)" xlink:href="#linear-gradient"/><linearGradient id="linear-gradient-4" x1="268.21" y1="285.02" x2="304.35" y2="285.02" gradientUnits="userSpaceOnUse"><stop offset="0" stop-color="#5bc7dd"/><stop offset="1" stop-color="#1b75bb"/></linearGradient></defs><rect class="cls-1" x="0.04" y="0.05" width="1024.12" height="445.44"/><path class="cls-2" d="M433.94,220.59q10.38,5.78,15.24,14.78t4.85,21.7q0,23.79-16.63,35t-43.17,11.2H332.12a3.41,3.41,0,0,1-2.54-.93,3.44,3.44,0,0,1-.92-2.54V145.09a3.19,3.19,0,0,1,3.46-3.46h60q29.55,0,44.44,10.51t14.9,35.21q0,21.93-17.55,31.86Q433,219.9,433.94,220.59ZM372.06,180v23.09a1,1,0,0,0,1.16,1.15h18.93q16.85,0,16.85-12.7t-16.85-12.7H373.22A1,1,0,0,0,372.06,180Zm38.56,72.49q0-12.93-16.16-12.93H373.22a1,1,0,0,0-1.16,1.16v24.24a1,1,0,0,0,1.16,1.16h21Q410.63,266.08,410.62,252.45Z"/><path class="cls-2" d="M577.08,300.25l-5.08-18c-.31-.62-.69-.93-1.15-.93h-49c-.46,0-.84.31-1.15.93l-5.08,18a3.6,3.6,0,0,1-3.93,3H472.26q-4.15,0-3-3.93L518,144.4a3.75,3.75,0,0,1,3.92-2.77h49a3.77,3.77,0,0,1,3.93,2.77l48.71,154.92a3.3,3.3,0,0,1,.23,1.39c0,1.69-1.08,2.54-3.23,2.54H581A3.61,3.61,0,0,1,577.08,300.25Zm-45.25-52.18h28.86c.93,0,1.23-.46.93-1.39L546.84,195c-.15-.46-.39-.69-.69-.69s-.55.23-.7.69l-14.54,51.72C530.75,247.61,531.06,248.07,531.83,248.07Z"/><path class="cls-2" d="M668.05,298.75q-14.55-6.36-22.51-18.13a47.46,47.46,0,0,1-8-27.24v-3.24a3.21,3.21,0,0,1,3.47-3.46h35.78a3.21,3.21,0,0,1,3.47,3.46v1.39q0,6.47,6.81,11.43t18.12,5q8.53,0,12.24-3.58a10.88,10.88,0,0,0,3.69-8,8.19,8.19,0,0,0-4.62-7.62q-4.62-2.53-16.85-6.23l-6.7-1.85q-22.85-6.93-38.32-18.47t-15.47-33.48A43.68,43.68,0,0,1,647,163a50.11,50.11,0,0,1,21.58-17.2,76.25,76.25,0,0,1,30.83-6,77.84,77.84,0,0,1,32.67,6.7,55.09,55.09,0,0,1,23.08,18.93,48.07,48.07,0,0,1,8.43,27.94v2.08a3.19,3.19,0,0,1-3.46,3.46H724.38a3.19,3.19,0,0,1-3.46-3.46v-.23q0-6.93-6.23-12.59T697.83,177q-7.4,0-11.66,3a9.59,9.59,0,0,0-4.27,8.31,9.22,9.22,0,0,0,3.12,7,32.26,32.26,0,0,0,9.58,5.54q6.46,2.66,19.85,6.81,1.84.69,16.28,5a50,50,0,0,1,24.13,15.47q9.69,11.19,9.7,27.12,0,15.48-7.85,26.67t-21.94,17.2q-14.09,6-32.78,6Q682.59,305.1,668.05,298.75Z"/><path class="cls-2" d="M905.16,177.88a3.42,3.42,0,0,1-2.54.92h-69a1,1,0,0,0-1.16,1.16v21.7a1,1,0,0,0,1.16,1.15H876.3a3.2,3.2,0,0,1,3.46,3.47v30a3.2,3.2,0,0,1-3.46,3.47H833.59a1,1,0,0,0-1.16,1.15v24a1,1,0,0,0,1.16,1.16h69a3.19,3.19,0,0,1,3.46,3.46v30.24a3.2,3.2,0,0,1-3.46,3.47H792.49a3.2,3.2,0,0,1-3.46-3.47V145.09a3.19,3.19,0,0,1,3.46-3.46H902.62a3.19,3.19,0,0,1,3.46,3.46v30.25A3.44,3.44,0,0,1,905.16,177.88Z"/><rect class="cls-3" x="198.18" y="141.66" width="80.8" height="36.25" rx="16.32" transform="translate(477.16 319.57) rotate(-180)"/><rect class="cls-4" x="155.44" y="204.38" width="123.54" height="36.25" rx="16.32" transform="translate(434.43 445) rotate(-180)"/><path class="cls-5" d="M237,267.09H134.22a18.13,18.13,0,0,0-18.13,18.13h0a18.13,18.13,0,0,0,18.13,18.12H260.86s-12.14-4.29-12.14-18.06a21.57,21.57,0,0,1,.36-4A12.15,12.15,0,0,0,237,267.09Z"/><circle class="cls-6" cx="286.28" cy="285.02" r="18.07"/></svg>