<svg id="Layer_1" data-name="Layer 1" xmlns="http://www.w3.org/2000/svg" xmlns:xlink="http://www.w3.org/1999/xlink" viewBox="0 0 1024 445"><defs><style>.cls-1{fill:#08192b;}.cls-2{fill:url(#linear-gradient);}.cls-3{fill:url(#linear-gradient-2);}.cls-4{fill:url(#linear-gradient-3);}</style><linearGradient id="linear-gradient" x1="-201.81" y1="536.96" x2="-201.44" y2="293.3" gradientTransform="translate(727.94 -17.55) rotate(44.91)" gradientUnits="userSpaceOnUse"><stop offset="0" stop-color="#f9ec31"/><stop offset="0.13" stop-color="#cbde37"/><stop offset="0.28" stop-color="#9ed13d"/><stop offset="0.42" stop-color="#79c642"/><stop offset="0.57" stop-color="#5cbe45"/><stop offset="0.72" stop-color="#47b848"/><stop offset="0.86" stop-color="#3bb449"/><stop offset="1" stop-color="#37b34a"/></linearGradient><linearGradient id="linear-gradient-2" x1="2809.71" y1="2352.15" x2="2809.34" y2="2595.81" gradientTransform="translate(599.77 3934.4) rotate(-135.09)" xlink:href="#linear-gradient"/><linearGradient id="linear-gradient-3" x1="76.05" y1="439.46" x2="76.05" y2="401.89" gradientTransform="translate(608.37 -62.14) rotate(45)" xlink:href="#linear-gradient"/></defs><path class="cls-1" d="M537.67,177.83a3.43,3.43,0,0,1-2.56.93H465.93a1,1,0,0,0-1.16,1.16v21.83a1,1,0,0,0,1.16,1.16h42.95a3.22,3.22,0,0,1,3.48,3.48v30.18a3.22,3.22,0,0,1-3.48,3.49H465.93a1,1,0,0,0-1.16,1.16v59.2a3.22,3.22,0,0,1-3.49,3.48H424.6a3.22,3.22,0,0,1-3.48-3.48V144.87a3.22,3.22,0,0,1,3.48-3.49H535.11a3.22,3.22,0,0,1,3.49,3.49v30.41A3.45,3.45,0,0,1,537.67,177.83Z"/><path class="cls-1" d="M641.21,300.88l-5.11-18.11c-.31-.61-.69-.92-1.16-.92H585.72c-.46,0-.85.31-1.16.92l-5.11,18.11a3.61,3.61,0,0,1-3.94,3h-39.7c-2.79,0-3.8-1.31-3-3.95l49-155.78a3.77,3.77,0,0,1,3.94-2.79h49.22a3.79,3.79,0,0,1,3.95,2.79l49,155.78a3.38,3.38,0,0,1,.23,1.4c0,1.7-1.09,2.55-3.25,2.55h-39.7A3.62,3.62,0,0,1,641.21,300.88Zm-45.5-52.47h29c.93,0,1.23-.46.93-1.39L610.8,195c-.16-.46-.39-.69-.7-.69s-.54.23-.7.69l-14.62,52C594.62,248,594.93,248.41,595.71,248.41Z"/><path class="cls-1" d="M799.32,147.3a55.1,55.1,0,0,1,22.28,21.83q7.89,14.06,7.9,32.62V247q0,20.43-10.8,35.17t-29.6,20.32a1.09,1.09,0,0,0-.93,1.16v16.95a3.22,3.22,0,0,1-3.48,3.48H748a3.22,3.22,0,0,1-3.49-3.48V303.9a1.11,1.11,0,0,0-.93-1.16q-19-5.81-29.83-20.43T703,247V201.75q0-18.57,7.9-32.62A55.26,55.26,0,0,1,733,147.3q14.28-7.77,33.08-7.77T799.32,147.3Zm-52.71,98.56q0,10,5.34,16.25a17.68,17.68,0,0,0,14.16,6.27,18.19,18.19,0,0,0,14.28-6.15q5.46-6.15,5.46-16.37V199.43q0-10.22-5.46-16.37a18.19,18.19,0,0,0-14.28-6.15A17.68,17.68,0,0,0,752,183.18q-5.34,6.25-5.34,16.25Z"/><path class="cls-2" d="M269.31,212.72,229,253.14c-5.67,5.69-15.21,5.37-21.31-.7s-6.44-15.62-.77-21.31l40.3-40.42s3.67-5-1.71-10.4-10.12-1.4-10.12-1.4l-12.65,12.68c-5.67,5.69-15.21,5.38-21.31-.7s-6.44-15.62-.77-21.31l44.25-44.38c5.67-5.69,15.22-5.37,21.31.7s6.44,15.62.77,21.31l-14.22,14.27s-4.91,4.59,1.32,10.79c6.65,6.63,10.51,1,10.51,1l41.88-42c5.67-5.69,15.21-5.37,21.31.71s6.44,15.61.77,21.3l-41.88,42Z"/><path class="cls-3" d="M297.15,202.55l40.29-40.42c5.67-5.69,15.22-5.37,21.31.7s6.44,15.62.77,21.31l-40.3,40.42s-3.66,5,1.72,10.4,10.12,1.4,10.12,1.4l12.64-12.68c5.67-5.69,15.22-5.37,21.31.7s6.44,15.62.77,21.31l-44.25,44.38c-5.67,5.69-15.21,5.38-21.31-.7s-6.44-15.62-.77-21.31l14.23-14.27s4.9-4.58-1.32-10.79c-6.65-6.63-10.52-1-10.52-1L260,284c-5.68,5.69-15.22,5.37-21.31-.7s-6.45-15.62-.77-21.31l41.87-42Z"/><circle class="cls-4" cx="364.69" cy="289.1" r="18.79"/></svg>