<svg id="Layer_1" data-name="Layer 1" xmlns="http://www.w3.org/2000/svg" xmlns:xlink="http://www.w3.org/1999/xlink" viewBox="0 0 1024 445"><defs><style>.cls-1{fill:#08192b;}.cls-2{fill:#fff;}.cls-3{fill:url(#linear-gradient);}.cls-4{fill:url(#linear-gradient-2);}.cls-5{fill:url(#linear-gradient-3);}</style><linearGradient id="linear-gradient" x1="-507.51" y1="-199.1" x2="-507.14" y2="-442.76" gradientTransform="translate(423.28 719.55) rotate(44.91)" gradientUnits="userSpaceOnUse"><stop offset="0" stop-color="#f9ec31"/><stop offset="0.13" stop-color="#cbde37"/><stop offset="0.28" stop-color="#9ed13d"/><stop offset="0.42" stop-color="#79c642"/><stop offset="0.57" stop-color="#5cbe45"/><stop offset="0.72" stop-color="#47b848"/><stop offset="0.86" stop-color="#3bb449"/><stop offset="1" stop-color="#37b34a"/></linearGradient><linearGradient id="linear-gradient-2" x1="1027.41" y1="3088.21" x2="1027.04" y2="3331.87" gradientTransform="translate(-1183.57 3197.3) rotate(-135.09)" xlink:href="#linear-gradient"/><linearGradient id="linear-gradient-3" x1="-230.77" y1="-297.72" x2="-230.77" y2="-335.29" gradientTransform="translate(302.59 676.08) rotate(45)" xlink:href="#linear-gradient"/></defs><rect class="cls-1" x="-0.46" y="-0.1" width="1024.12" height="445.44"/><path class="cls-2" d="M536.2,177.83a3.42,3.42,0,0,1-2.56.93H464.46a1,1,0,0,0-1.16,1.16v21.83a1,1,0,0,0,1.16,1.16h43a3.22,3.22,0,0,1,3.48,3.48v30.18a3.22,3.22,0,0,1-3.48,3.49h-43a1,1,0,0,0-1.16,1.16v59.2a3.22,3.22,0,0,1-3.48,3.48H423.13a3.22,3.22,0,0,1-3.48-3.48V144.87a3.22,3.22,0,0,1,3.48-3.49H533.64a3.22,3.22,0,0,1,3.49,3.49v30.41A3.41,3.41,0,0,1,536.2,177.83Z"/><path class="cls-2" d="M639.74,300.88l-5.1-18.11c-.32-.61-.7-.92-1.16-.92H584.25c-.46,0-.85.31-1.16.92L578,300.88a3.62,3.62,0,0,1-4,3h-39.7c-2.79,0-3.8-1.31-3-3.95l49-155.78a3.77,3.77,0,0,1,3.94-2.79h49.23a3.79,3.79,0,0,1,3.94,2.79l49,155.78a3.38,3.38,0,0,1,.23,1.4c0,1.7-1.08,2.55-3.25,2.55h-39.7A3.62,3.62,0,0,1,639.74,300.88Zm-45.5-52.47h29c.93,0,1.24-.46.93-1.39l-14.86-52c-.16-.46-.39-.69-.7-.69s-.54.23-.69.69l-14.63,52C593.15,248,593.46,248.41,594.24,248.41Z"/><path class="cls-2" d="M797.85,147.3a55.18,55.18,0,0,1,22.29,21.83Q828,183.19,828,201.75V247q0,20.43-10.8,35.17t-29.6,20.32a1.09,1.09,0,0,0-.93,1.16v16.95a3.22,3.22,0,0,1-3.48,3.48H746.54a3.2,3.2,0,0,1-3.48-3.48V303.9a1.11,1.11,0,0,0-.93-1.16q-19.05-5.81-29.84-20.43T701.5,247V201.75q0-18.57,7.89-32.62a55.26,55.26,0,0,1,22.17-21.83q14.28-7.77,33.09-7.77T797.85,147.3Zm-52.7,98.56q0,10,5.33,16.25a17.68,17.68,0,0,0,14.17,6.27,18.19,18.19,0,0,0,14.28-6.15q5.45-6.15,5.45-16.37V199.43q0-10.22-5.45-16.37a18.19,18.19,0,0,0-14.28-6.15,17.68,17.68,0,0,0-14.17,6.27q-5.34,6.25-5.33,16.25Z"/><path class="cls-3" d="M267.84,212.72l-40.29,40.42c-5.68,5.69-15.22,5.37-21.32-.7s-6.44-15.62-.76-21.31l40.29-40.42s3.67-5-1.71-10.4-10.12-1.4-10.12-1.4l-12.64,12.68c-5.68,5.69-15.22,5.38-21.32-.7s-6.44-15.62-.76-21.31l44.24-44.38c5.68-5.69,15.22-5.37,21.31.7s6.44,15.62.77,21.31l-14.22,14.27s-4.91,4.59,1.32,10.79c6.65,6.63,10.51,1,10.51,1l41.88-42c5.67-5.69,15.22-5.37,21.31.71s6.44,15.61.77,21.3l-41.88,42Z"/><path class="cls-4" d="M295.68,202.55,336,162.13c5.68-5.69,15.22-5.37,21.31.7s6.44,15.62.77,21.31l-40.29,40.42s-3.67,5,1.71,10.4,10.12,1.4,10.12,1.4l12.64-12.68c5.68-5.69,15.22-5.37,21.31.7s6.44,15.62.77,21.31l-44.24,44.38c-5.68,5.69-15.22,5.38-21.32-.7s-6.44-15.62-.76-21.31l14.22-14.27s4.91-4.58-1.32-10.79c-6.65-6.63-10.52-1-10.52-1L258.5,284c-5.68,5.69-15.22,5.37-21.31-.7s-6.44-15.62-.77-21.31l41.87-42Z"/><circle class="cls-5" cx="363.22" cy="289.1" r="18.79"/></svg>